HIERARCHY
ROOT pelvis
{
  OFFSET 0 100 0
  CHANNELS 6 Xposition Yposition Zposition Zrotation Xrotation Yrotation
  JOINT pelvis_right_femur
  {
    OFFSET -10.78128 -3.44521 -0.5502486
    CHANNELS 3 Zrotation Xrotation Yrotation
    JOINT right_femur_tibia
    {
      OFFSET -0.8047443 -44.0398 -0.1307829
      CHANNELS 3 Zrotation Xrotation Yrotation
      JOINT right_tibia_foot
      {
        OFFSET 3.006224 -47.83518 -5
        CHANNELS 3 Zrotation Xrotation Yrotation
        End Site
        {
          OFFSET 0 -5 15
        }
      }
    }
  }
  JOINT pelvis_left_femur
  {
    OFFSET 10.78128 -3.44521 -0.5502486
    CHANNELS 3 Zrotation Xrotation Yrotation
    JOINT left_femur_tibia
    {
      OFFSET 0.8047443 -44.0398 -0.1307829
      CHANNELS 3 Zrotation Xrotation Yrotation
      JOINT left_tibia_foot
      {
        OFFSET -4.370144 -48.10324 -4.275266
        CHANNELS 3 Zrotation Xrotation Yrotation
        End Site
        {
          OFFSET 0 -5 15
        }
      }
    }
  }
  JOINT pelvis_spine1
  {
    OFFSET 0 6.468898 -3.129235
    CHANNELS 3 Zrotation Xrotation Yrotation
    JOINT spine1
    {
      OFFSET 0 23.15396 4.99043
      CHANNELS 3 Zrotation Xrotation Yrotation
      JOINT spine2
      {
        OFFSET 0 20.79997 -5.064912
        CHANNELS 3 Zrotation Xrotation Yrotation
        JOINT neck
        {
          OFFSET 0 14.38658 9.616178
          CHANNELS 3 Zrotation Xrotation Yrotation
          End Site
          {
            OFFSET 0 20 0
          }
        }
      }
      JOINT right_manubrium
      {
        OFFSET -5.722621 16.35077 3.967754
        CHANNELS 3 Zrotation Xrotation Yrotation
        JOINT right_clavicle
        {
          OFFSET -13.16364 1.694482 -4.693211
          CHANNELS 3 Zrotation Xrotation Yrotation
          JOINT right_humerus
          {
            OFFSET -28.5034 -0.3100689 -2.792744
            CHANNELS 3 Zrotation Xrotation Yrotation
            JOINT right_radius
            {
              OFFSET -25.15693 0.02248979 -1.271978
              CHANNELS 3 Zrotation Xrotation Yrotation
              End Site
              {
                OFFSET -15 0 0
              }
            }
          }
        }
      }
      JOINT left_manubrium
      {
        OFFSET 5.722621 16.35077 3.967754
        CHANNELS 3 Zrotation Xrotation Yrotation
        JOINT left_clavicle
        {
          OFFSET 13.16364 1.694482 -4.693211
          CHANNELS 3 Zrotation Xrotation Yrotation
          JOINT left_humerus
          {
            OFFSET 29.39168 -1.063119 -2.237045
            CHANNELS 3 Zrotation Xrotation Yrotation
            JOINT left_radius
            {
              OFFSET 24.59957 -0.9528479 0.9047498
              CHANNELS 3 Zrotation Xrotation Yrotation
              End Site
              {
                OFFSET 15 -0 -0
              }
            }
          }
        }
      }
    }
  }
}
MOTION
Frames: 13
Frame Time: 0.0416666666667
28.30604 105.1011 235.6658 1.557067 -6.31814 1.530709 1.455274 9.476834 6.790225 -2.094152e-10 33.79904 -3.976284e-12 5.931433 -11.22305 -3.042343 -2.896036 -17.34235 -8.955881 2.20223e-10 19.82746 -4.59626e-10 -4.012319 -9.160763 19.80843 -1.550078 0.1364741 8.136613 -1.014896 9.476459 -2.825817 2.881774 21.55955 5.531612 1.750321 -17.37855 8.62722 2.034185 -21.25265 10.805 81.15494 24.46164 -5.661239 4.049054e-10 1.962405e-10 25.21736 -23.35188 13.06729 13.31034 3.797638 -13.79487 -3.014411 -93.43777 21.91016 25.18802 -7.10794e-11 6.554315e-11 -10.77006 -0.4300539 6.831924 14.61437
29.59867 105.3356 241.8785 1.767663 -6.813687 1.830806 0.9666162 7.760607 6.899463 -8.116182e-11 40.50825 6.077262e-11 5.905893 -8.821922 -3.704002 -3.901036 -14.42615 -9.887495 7.135095e-10 21.18549 -5.720881e-10 -3.787991 -9.567238 19.70353 -1.818866 0.1609039 7.631603 -1.119303 9.524405 -2.891625 2.895297 21.76114 5.706987 1.813561 -17.22224 8.808859 2.376853 -20.38926 10.72525 81.47475 24.68229 -6.335589 4.161946e-10 2.744211e-10 23.82133 -22.93782 12.83696 12.85577 3.571443 -13.62979 -3.193366 -92.53079 22.42254 24.08691 -3.787289e-11 8.335951e-11 -10.47179 -0.3212414 6.937694 14.56463
30.87021 105.9516 247.7977 2.082072 -7.44935 2.397789 0.4012355 4.621078 6.852601 1.798263e-11 47.8665 1.266101e-10 5.942224 -6.873859 -4.63872 -4.960399 -10.43559 -10.84879 1.197022e-09 21.59631 -6.864308e-10 -3.316707 -10.49974 19.46155 -2.198644 0.2365509 6.958635 -1.175026 9.605398 -3.177713 2.857955 22.13109 5.897316 1.777948 -16.94555 9.042674 2.707464 -19.44138 10.67403 82.45612 25.03188 -7.602876 3.809986e-10 3.506508e-10 22.11663 -22.43091 12.73792 12.24353 3.407442 -13.80133 -3.528176 -91.31437 23.05493 22.2284 -1.095921e-11 1.142042e-10 -11.04997 -0.04892669 7.176253 14.31518
32.06967 106.7958 253.2938 2.324052 -7.945648 3.180609 0.07772778 0.193259 6.65439 -1.118694e-11 53.23996 2.351357e-10 5.683906 -6.311213 -5.700212 -5.697773 -5.687437 -11.68497 1.588325e-09 21.16968 -8.394067e-10 -2.773691 -11.67547 18.94803 -2.523516 0.3411269 6.122481 -1.051499 9.571388 -3.704154 2.785101 22.50714 5.959322 1.595081 -16.61031 9.225992 2.933148 -18.43909 10.58148 83.62322 25.48316 -9.306983 2.748921e-10 4.181114e-10 20.19259 -21.35476 12.73184 11.29358 3.326861 -14.27615 -3.876638 -89.63974 23.82216 19.72329 1.850609e-12 1.595419e-10 -12.32993 0.3613145 7.654122 13.7857
33.18289 107.6693 258.4368 2.459106 -8.120411 4.108209 0.007076747 -4.758487 6.223269 -1.282861e-10 55.52537 3.501657e-10 5.205527 -6.469147 -6.596217 -6.086744 -0.9017557 -12.2969 1.754461e-09 19.81902 -9.162884e-10 -2.314051 -13.0278 18.29031 -2.729067 0.4370868 5.266023 -0.8068308 9.419237 -4.312429 2.711807 22.8054 5.961322 1.390916 -16.38626 9.365584 2.982844 -17.52961 10.44877 84.87151 25.84359 -11.13882 1.371346e-10 4.536383e-10 18.32906 -20.16048 12.71739 10.33135 3.430211 -14.94465 -4.176588 -87.96319 24.41217 17.05477 2.101127e-12 2.021622e-10 -14.04908 0.9283514 8.253244 12.98912
34.21281 108.3362 263.4112 2.510064 -7.955547 5.084532 0.1316458 -9.60886 5.611141 -2.964181e-10 53.89178 4.247793e-10 4.716044 -7.02471 -7.243913 -6.175798 3.437012 -12.60749 1.632988e-09 17.63993 -8.943057e-10 -1.999767 -14.55702 17.74023 -2.83462 0.511085 4.50384 -0.488862 9.154821 -4.891929 2.675367 22.98985 5.938533 1.239287 -16.25929 9.459453 2.840121 -16.7328 10.27076 86.02893 26.03131 -12.87629 -4.997904e-12 4.503512e-10 16.65719 -19.18221 12.6781 9.562293 3.808702 -15.72243 -4.364625 -86.48072 24.66787 14.35997 -1.279422e-11 2.37429e-10 -16.09357 1.588951 8.814928 11.99824
35.13039 108.598 268.2272 2.542584 -7.592163 6.012835 0.3618173 -14.10486 4.913696 -4.973688e-10 48.92951 4.492873e-10 4.078015 -8.088188 -7.630878 -6.11957 7.176007 -12.75792 1.321295e-09 15.24183 -8.684057e-10 -1.580546 -16.19247 17.53251 -2.929735 0.5718979 3.853933 -0.1164062 8.812557 -5.415243 2.642709 23.09245 5.889935 1.160437 -16.13516 9.452906 2.59684 -15.95265 10.06463 86.67483 26.19874 -14.43778 -1.516037e-10 4.221641e-10 14.98143 -18.19314 12.48442 8.802684 4.410673 -16.59148 -4.431142 -84.83104 24.70722 11.46231 -3.926787e-11 2.672349e-10 -18.38572 2.372053 9.434679 10.73402
35.96209 108.4131 273.231 2.456376 -7.006671 6.811477 0.7113487 -18.11799 4.200497 -6.524106e-10 41.67295 3.892655e-10 3.652056 -8.601563 -7.951874 -5.922788 10.5539 -12.58349 8.7711e-10 13.34034 -7.823105e-10 -1.587502 -17.71046 17.32806 -2.924963 0.6294227 3.294832 0.2673561 8.422433 -5.854481 2.694365 23.13296 5.871518 1.187006 -16.13807 9.460322 2.294922 -15.15013 9.835848 87.58382 26.29688 -15.94358 -2.650329e-10 3.802338e-10 13.38443 -17.73432 12.41741 8.441951 5.184003 -17.41413 -4.364029 -83.81721 24.42748 8.769658 -6.944402e-11 2.921705e-10 -20.6424 3.08476 9.7438 9.621053
36.66536 107.7516 278.3101 2.396839 -6.499784 7.451334 1.062589 -21.53578 3.556995 -8.24429e-10 33.77152 3.160109e-10 3.010684 -9.44511 -8.168199 -5.743069 13.33885 -12.40156 4.618843e-10 12.31134 -7.784074e-10 -1.428338 -19.0402 17.41004 -2.959015 0.7092699 2.821437 0.6494255 8.053148 -6.233595 2.728371 23.22031 5.828504 1.254514 -16.09204 9.384979 2.035974 -14.32125 9.639566 88.14501 26.52802 -17.31096 -3.780236e-10 3.482792e-10 11.68544 -17.14229 12.2218 7.987961 5.960825 -18.24921 -4.237612 -82.6983 24.14249 6.020175 -9.879219e-11 3.175473e-10 -22.82831 3.857476 10.13569 8.393468
37.21319 106.7359 283.3806 2.304854 -6.105417 7.923096 1.41693 -24.30266 3.014508 -9.796268e-10 26.86446 2.522319e-10 2.091066 -10.31906 -8.337891 -5.561259 15.6062 -12.25837 1.809552e-10 12.50695 -8.39739e-10 -1.281892 -19.90297 17.44138 -2.968266 0.8195401 2.376323 1.004892 7.71124 -6.544775 2.743913 23.34551 5.747907 1.325863 -16.0482 9.251974 1.857871 -13.47791 9.473671 88.46583 26.89046 -18.48589 -4.859549e-10 3.399938e-10 9.929329 -16.35878 11.93567 7.451746 6.568258 -18.96824 -4.088024 -81.54869 23.93586 3.499342 -1.183542e-10 3.420403e-10 -24.5736 4.631065 10.57631 7.198333
37.63865 105.58 288.5604 2.088427 -5.808752 8.255429 1.84438 -26.1601 2.679551 -1.086155e-09 21.97465 2.174094e-10 1.103949 -10.77976 -8.556138 -5.288748 17.35876 -12.10821 8.900563e-11 14.01151 -9.279059e-10 -1.551224 -20.04522 17.10452 -2.844614 0.939997 1.952691 1.302471 7.399676 -6.754172 2.799732 23.47425 5.615906 1.366755 -16.08995 9.13886 1.748438 -12.71771 9.326403 88.92245 27.23089 -19.37438 -5.679344e-10 3.622628e-10 8.420997 -15.61472 11.74247 7.048707 6.895839 -19.39129 -3.920678 -80.90724 23.85071 1.767252 -1.244167e-10 3.65354e-10 -25.40947 5.198292 10.88719 6.380737
38.00602 104.5925 294.0148 1.780893 -5.729113 8.53237 2.31535 -27.0962 2.694204 -1.114907e-09 20.75777 2.558338e-10 0.2327669 -10.30531 -8.968693 -5.010185 18.98318 -12.07715 3.036265e-10 17.04283 -1.066331e-09 -2.287387 -19.41577 16.41314 -2.601392 1.030184 1.51484 1.508249 7.188293 -6.867667 2.926896 23.6247 5.450302 1.367799 -16.22576 9.113979 1.771821 -12.0368 9.204476 89.80158 27.46994 -20.05704 -6.020625e-10 4.313978e-10 7.21203 -14.98062 11.7265 6.808049 6.84875 -19.42945 -3.784712 -81.0098 23.98612 1.050041 -1.11748e-10 3.899006e-10 -25.016 5.426626 11.01908 6.148132
38.35437 104.0083 299.7161 1.502877 -5.928753 8.771017 2.852251 -26.48933 3.078249 -1.096906e-09 22.09868 3.572651e-10 -0.6233831 -9.430298 -9.359335 -4.751342 19.72655 -12.16161 7.998702e-10 21.67505 -1.339828e-09 -3.051942 -18.02568 15.88964 -2.308406 1.052985 1.226315 1.61167 7.151787 -6.82732 3.082767 23.76076 5.231295 1.365309 -16.3702 9.072603 1.900776 -11.56105 9.14641 90.4418 27.61176 -20.29895 -5.83514e-10 5.330284e-10 6.415445 -14.34182 11.70889 6.590757 6.487951 -19.15243 -3.673696 -81.5435 24.26146 1.359162 -8.739311e-11 4.107018e-10 -23.46284 5.408364 11.12919 6.26224
